<svg width="57" height="45" viewBox="0 0 57 45" fill="none" xmlns="http://www.w3.org/2000/svg">
<g clip-path="url(#clip0_2_8506)">
<path d="M56.77 27.1247C56.5634 26.6507 56.2217 26.2478 55.7876 25.9661C55.3535 25.6844 54.846 25.5363 54.3282 25.5403H52.8216V22.1775H56.1703C56.28 22.1775 56.3886 22.156 56.4899 22.114C56.5912 22.0721 56.6832 22.0106 56.7607 21.9331C56.8382 21.8556 56.8996 21.7636 56.9414 21.6623C56.9833 21.5611 57.0047 21.4527 57.0045 21.3432C57.0047 21.2337 56.9833 21.1253 56.9414 21.0242C56.8996 20.923 56.8381 20.8311 56.7606 20.7538C56.6831 20.6764 56.5911 20.615 56.4898 20.5732C56.3885 20.5314 56.2799 20.51 56.1703 20.5102H41.573L39.1148 16.8318C38.603 16.0621 37.9083 15.4309 37.0927 14.9946C36.277 14.5584 35.3658 14.3305 34.4405 14.3315H32.0863L29.833 11.2666C29.4601 10.7621 28.9739 10.3518 28.4135 10.0687C27.8531 9.78555 27.2341 9.63749 26.606 9.63636H24.4685V7.41919C24.7888 7.55049 25.1317 7.61796 25.4779 7.61779C26.1869 7.61505 26.8661 7.33209 27.3668 6.83079C27.8675 6.32949 28.149 5.65064 28.1498 4.94268C28.1474 4.23588 27.8652 3.5587 27.3646 3.05891C26.864 2.55913 26.1858 2.27731 25.4779 2.27497C25.1318 2.27433 24.7889 2.34129 24.4685 2.47208V0.841809C24.4685 0.620513 24.3805 0.408279 24.2237 0.251798C24.067 0.0953179 23.8545 0.00740849 23.6328 0.00740849C23.4114 0.0078011 23.1992 0.0958851 23.0428 0.252323C22.8864 0.408761 22.7986 0.620769 22.7986 0.841809V9.63932H21.0173V0.834401C21.0173 0.613361 20.9295 0.401352 20.7731 0.244914C20.6167 0.0884766 20.4045 0.000392611 20.1831 0C19.9615 0 19.7489 0.0879095 19.5922 0.24439C19.4355 0.40087 19.3474 0.613104 19.3474 0.834401V2.46467C19.0275 2.33399 18.6851 2.26703 18.3395 2.26755C17.6303 2.26794 16.9502 2.54889 16.448 3.04889C15.9459 3.54888 15.6626 4.22718 15.6602 4.93526C15.661 5.6445 15.9435 6.32448 16.4458 6.82599C16.9481 7.3275 17.6292 7.6096 18.3395 7.61038C18.6852 7.60968 19.0274 7.54224 19.3474 7.41178V9.6245H16.8166C16.1015 9.62528 15.4159 9.90925 14.9103 10.4141C14.4046 10.9189 14.1202 11.6034 14.1195 12.3174V14.3271H5.06477C4.46793 14.3275 3.89562 14.5643 3.47345 14.9855C3.05128 15.4067 2.81375 15.978 2.81297 16.5739V17.2141C2.81375 17.81 3.05128 18.3813 3.47345 18.8025C3.89562 19.2237 4.46793 19.4605 5.06477 19.4609H10.1606C11.1558 19.4625 12.1097 19.8579 12.8134 20.5605C13.517 21.263 13.913 22.2155 13.9146 23.2091V29.702H2.66453C2.27287 29.7018 1.88596 29.7876 1.53121 29.9533C1.17645 30.119 0.862523 30.3606 0.611644 30.6609C0.361007 30.9611 0.179495 31.3127 0.0799722 31.6907C-0.0195511 32.0687 -0.034656 32.4639 0.0357055 32.8484L1.65812 41.7407C1.81838 42.6201 2.28269 43.4154 2.97008 43.988C3.65747 44.5605 4.52435 44.874 5.41954 44.8738H10.2126C10.3222 44.874 10.4309 44.8526 10.5323 44.8108C10.6337 44.7691 10.7258 44.7078 10.8034 44.6304C10.881 44.553 10.9426 44.4611 10.9846 44.36C11.0267 44.2588 11.0483 44.1504 11.0483 44.0409C11.0483 43.8196 10.9602 43.6074 10.8035 43.4509C10.6468 43.2944 10.4342 43.2065 10.2126 43.2065H5.41954C4.91544 43.207 4.42719 43.0306 4.04004 42.7083C3.65289 42.3859 3.39143 41.9381 3.30133 41.4429L1.6789 32.5505C1.65199 32.4063 1.65733 32.2579 1.69454 32.1159C1.73175 31.974 1.79991 31.842 1.89415 31.7294C1.9883 31.6167 2.1061 31.526 2.23922 31.4638C2.37234 31.4016 2.51753 31.3693 2.66453 31.3693H24.1434C25.6879 31.3687 27.1868 30.8464 28.3962 29.8872L30.3407 28.337C31.253 27.611 32.3848 27.215 33.5514 27.2136H54.3134C54.5079 27.2105 54.699 27.2651 54.8623 27.3707C55.0257 27.4763 55.1539 27.6279 55.2307 27.8064C55.3122 27.9828 55.3394 28.1794 55.3087 28.3713C55.2781 28.5632 55.191 28.7416 55.0585 28.8839L51.8255 32.4675C51.7521 32.5487 51.6954 32.6436 51.6588 32.7467C51.6221 32.8499 51.6061 32.9592 51.6118 33.0685C51.6174 33.1777 51.6446 33.2848 51.6917 33.3836C51.7388 33.4824 51.805 33.571 51.8864 33.6442C51.9679 33.7175 52.063 33.7739 52.1663 33.8104C52.2696 33.847 52.3792 33.8628 52.4886 33.857C52.5981 33.8512 52.7053 33.8239 52.8042 33.7768C52.9031 33.7296 52.9917 33.6634 53.065 33.582L56.2994 29.9999C56.6488 29.6186 56.8783 29.1432 56.9593 28.6328C57.0403 28.1225 56.9693 27.5996 56.7552 27.1291L56.77 27.1247ZM25.4764 3.93784C25.7439 3.93783 26.0004 4.04381 26.1896 4.23249C26.3789 4.42117 26.4854 4.67712 26.4858 4.94415C26.4854 5.21132 26.3789 5.46743 26.1897 5.65634C26.0005 5.84526 25.744 5.95157 25.4764 5.95196C25.209 5.95157 24.9526 5.84521 24.7636 5.65625C24.5747 5.4673 24.4685 5.21118 24.4685 4.94415C24.4689 4.67738 24.5752 4.42164 24.7642 4.23301C24.9531 4.04437 25.2092 3.93823 25.4764 3.93784ZM18.3425 5.95196C18.0751 5.95157 17.8187 5.84521 17.6297 5.65625C17.4407 5.4673 17.3346 5.21118 17.3346 4.94415C17.335 4.67738 17.4413 4.42164 17.6302 4.23301C17.8192 4.04437 18.0753 3.93823 18.3425 3.93784C18.6099 3.93783 18.8665 4.04381 19.0557 4.23249C19.245 4.42117 19.3515 4.67712 19.3519 4.94415C19.3515 5.21132 19.245 5.46743 19.0558 5.65634C18.8666 5.84526 18.6101 5.95157 18.3425 5.95196ZM51.1472 25.5418H48.0612V22.179H51.1472V25.5418ZM46.3972 22.179V25.5418H44.9277L42.6862 22.179H46.3972ZM19.8758 29.7034V21.2779C19.8762 21.0564 19.9646 20.844 20.1215 20.6873C20.2784 20.5306 20.4911 20.4424 20.713 20.4421H24.2221C24.4818 20.4424 24.7308 20.5456 24.9144 20.729C25.0981 20.9123 25.2014 21.1609 25.2018 21.4202V29.5953C24.86 29.6667 24.5119 29.7029 24.1627 29.7034H19.8758ZM27.3705 28.5801C27.2115 28.7071 27.0449 28.8244 26.8717 28.9313V21.4261C26.8709 20.7248 26.5915 20.0523 26.0948 19.5564C25.5981 19.0604 24.9246 18.7815 24.2221 18.7807H20.6997C20.035 18.7815 19.3978 19.0454 18.9278 19.5147C18.4578 19.984 18.1934 20.6202 18.1926 21.2839V29.7094H15.5875V23.2046C15.5859 21.7688 15.014 20.3923 13.9971 19.3771C12.9803 18.3618 11.6016 17.7907 10.1636 17.7892H5.06772C4.91366 17.7892 4.76588 17.7282 4.6568 17.6195C4.54772 17.5109 4.48625 17.3635 4.48586 17.2097V16.5694C4.48625 16.4156 4.54772 16.2682 4.6568 16.1596C4.76588 16.051 4.91366 15.99 5.06772 15.99H19.6369C19.8585 15.99 20.0711 15.902 20.2278 15.7456C20.3845 15.5891 20.4726 15.3768 20.4726 15.1556C20.4722 14.9345 20.384 14.7227 20.2273 14.5665C20.0706 14.4103 19.8583 14.3226 19.6369 14.3226H15.8012V12.3248C15.8012 12.1901 15.8278 12.0568 15.8794 11.9323C15.9311 11.8079 16.0067 11.6949 16.1021 11.5996C16.1975 11.5044 16.3107 11.4288 16.4354 11.3773C16.56 11.3258 16.6935 11.2992 16.8284 11.2992H26.6119C26.9782 11.2995 27.3394 11.3856 27.6663 11.5506C27.9932 11.7156 28.2767 11.9549 28.4941 12.2492L30.0216 14.3241H23.1934C22.9721 14.3241 22.7597 14.4118 22.603 14.568C22.4463 14.7241 22.3581 14.936 22.3577 15.157C22.3577 15.3783 22.4458 15.5906 22.6025 15.747C22.7592 15.9035 22.9718 15.9914 23.1934 15.9914H34.442C35.0922 15.9907 35.7325 16.1506 36.3057 16.4571C36.8789 16.7635 37.3672 17.2069 37.7269 17.7477L42.9223 25.5374H39.6329L36.1431 20.3724C35.8104 19.8786 35.3611 19.4742 34.8348 19.1948C34.3085 18.9154 33.7214 18.7696 33.1254 18.7703H31.5683C30.8658 18.7711 30.1923 19.05 29.6956 19.546C29.1989 20.042 28.9195 20.7144 28.9187 21.4158V27.344L27.3705 28.5801ZM30.5886 26.2295V21.4261C30.589 21.1668 30.6923 20.9183 30.876 20.7349C31.0596 20.5516 31.3086 20.4484 31.5683 20.448H33.1254C33.4478 20.448 33.7653 20.5271 34.05 20.6783C34.3347 20.8294 34.5779 21.0481 34.7582 21.315L37.6171 25.5478H33.5663C32.534 25.5496 31.5155 25.7847 30.5871 26.2354L30.5886 26.2295Z" fill="#273D7A"/>
<path d="M50.1018 35.6254C49.9371 35.4779 49.7206 35.4016 49.4996 35.4133C49.2787 35.4249 49.0714 35.5236 48.9232 35.6876L43.431 41.7759C43.0249 42.2257 42.5287 42.5854 41.9747 42.8317C41.4206 43.0781 40.8209 43.2056 40.2144 43.2061H14.4041C14.2944 43.2059 14.1858 43.2273 14.0844 43.2691C13.983 43.3109 13.8909 43.3722 13.8132 43.4496C13.7356 43.5269 13.674 43.6188 13.632 43.72C13.59 43.8211 13.5684 43.9295 13.5684 44.039C13.5684 44.1486 13.59 44.2571 13.632 44.3584C13.674 44.4596 13.7355 44.5516 13.8131 44.6291C13.8907 44.7065 13.9829 44.768 14.0843 44.8099C14.1857 44.8519 14.2943 44.8734 14.4041 44.8734H40.2144C41.0541 44.8722 41.8843 44.6952 42.6513 44.3539C43.4183 44.0126 44.1051 43.5146 44.6675 42.8919L50.1597 36.8036C50.2342 36.722 50.2917 36.6264 50.329 36.5224C50.3662 36.4184 50.3824 36.3081 50.3766 36.1978C50.3708 36.0875 50.3431 35.9795 50.2952 35.8799C50.2473 35.7804 50.18 35.6914 50.0974 35.618L50.1018 35.6254Z" fill="#273D7A"/>
<path d="M10.2218 34.117C9.4125 34.1182 8.63669 34.4398 8.06457 35.0113C7.49244 35.5828 7.17071 36.3576 7.16992 37.1656C7.1711 37.9734 7.49301 38.7478 8.06509 39.3189C8.63718 39.8901 9.41276 40.2115 10.2218 40.2127C11.0316 40.2127 11.8083 39.8918 12.3814 39.3205C12.9544 38.7492 13.2769 37.9741 13.2781 37.1656C13.277 36.3574 12.9549 35.5827 12.3825 35.0112C11.8102 34.4397 11.0342 34.1182 10.2248 34.117H10.2218ZM10.2218 38.5469C9.85527 38.5461 9.50399 38.4003 9.24495 38.1414C8.98591 37.8825 8.84024 37.5316 8.83984 37.1656C8.84024 36.7996 8.98591 36.4488 9.24495 36.1898C9.50399 35.9309 9.85527 35.7851 10.2218 35.7843C10.5886 35.7847 10.9402 35.9304 11.1996 36.1893C11.459 36.4483 11.6048 36.7994 11.6052 37.1656C11.6048 37.5318 11.459 37.8829 11.1996 38.1419C10.9402 38.4008 10.5886 38.5465 10.2218 38.5469Z" fill="#273D7A"/>
<path d="M21.9851 37.1656C21.9839 36.3574 21.6619 35.5827 21.0895 35.0112C20.5171 34.4397 19.7412 34.1182 18.9317 34.117C18.1224 34.1182 17.3467 34.4398 16.7745 35.0113C16.2024 35.5828 15.8807 36.3576 15.8799 37.1656C15.8807 37.9735 16.2025 38.7481 16.7746 39.3194C17.3468 39.8907 18.1226 40.2119 18.9317 40.2127C19.7411 40.2119 20.517 39.8907 21.0894 39.3195C21.6618 38.7482 21.9839 37.9736 21.9851 37.1656ZM17.5498 37.1656C17.5502 36.7996 17.6959 36.4488 17.9549 36.1898C18.2139 35.9309 18.5652 35.7851 18.9317 35.7843C19.2985 35.7847 19.6502 35.9304 19.9096 36.1893C20.1689 36.4483 20.3148 36.7994 20.3152 37.1656C20.3148 37.5318 20.1689 37.8829 19.9096 38.1419C19.6502 38.4008 19.2985 38.5465 18.9317 38.5469C18.5652 38.5461 18.2139 38.4003 17.9549 38.1414C17.6959 37.8825 17.5502 37.5316 17.5498 37.1656Z" fill="#273D7A"/>
</g>
<defs>
<clipPath id="clip0_2_8506">
<rect width="57" height="44.8723" fill="white"/>
</clipPath>
</defs>
</svg>
