<svg width="26" height="26" viewBox="0 0 26 26" fill="none" xmlns="http://www.w3.org/2000/svg">
<circle cx="13" cy="13" r="12.5" stroke="#273D7A"/>
<path d="M13.0001 9.795C11.2266 9.795 9.79539 11.2262 9.79539 12.9997C9.79539 14.7731 11.2266 16.2044 13.0001 16.2044C14.7735 16.2044 16.2048 14.7731 16.2048 12.9997C16.2048 11.2262 14.7735 9.795 13.0001 9.795ZM13.0001 15.0825C11.8532 15.0825 10.9173 14.1466 10.9173 12.9997C10.9173 11.8528 11.8532 10.9169 13.0001 10.9169C14.1469 10.9169 15.0829 11.8528 15.0829 12.9997C15.0829 14.1466 14.1469 15.0825 13.0001 15.0825ZM16.336 8.91687C15.922 8.91687 15.5876 9.25125 15.5876 9.66531C15.5876 10.0794 15.922 10.4137 16.336 10.4137C16.7501 10.4137 17.0845 10.0809 17.0845 9.66531C17.0846 9.56699 17.0653 9.46961 17.0277 9.37875C16.9902 9.28789 16.935 9.20533 16.8655 9.13581C16.796 9.06628 16.7134 9.01116 16.6226 8.97359C16.5317 8.93602 16.4343 8.91675 16.336 8.91687ZM19.247 12.9997C19.247 12.1372 19.2548 11.2825 19.2063 10.4216C19.1579 9.42156 18.9298 8.53406 18.1985 7.80281C17.4657 7.07 16.5798 6.84343 15.5798 6.795C14.7173 6.74656 13.8626 6.75437 13.0016 6.75437C12.1391 6.75437 11.2844 6.74656 10.4235 6.795C9.42351 6.84343 8.53601 7.07156 7.80476 7.80281C7.07195 8.53562 6.84539 9.42156 6.79695 10.4216C6.74851 11.2841 6.75632 12.1387 6.75632 12.9997C6.75632 13.8606 6.74851 14.7169 6.79695 15.5778C6.84539 16.5778 7.07351 17.4653 7.80476 18.1966C8.53757 18.9294 9.42351 19.1559 10.4235 19.2044C11.286 19.2528 12.1407 19.245 13.0016 19.245C13.8641 19.245 14.7188 19.2528 15.5798 19.2044C16.5798 19.1559 17.4673 18.9278 18.1985 18.1966C18.9313 17.4637 19.1579 16.5778 19.2063 15.5778C19.2563 14.7169 19.247 13.8622 19.247 12.9997ZM17.872 16.6841C17.7579 16.9684 17.6204 17.1809 17.4001 17.3997C17.1798 17.62 16.9688 17.7575 16.6845 17.8716C15.8626 18.1981 13.911 18.1247 13.0001 18.1247C12.0891 18.1247 10.136 18.1981 9.31414 17.8731C9.02976 17.7591 8.81726 17.6216 8.59851 17.4012C8.3782 17.1809 8.2407 16.97 8.12664 16.6856C7.80164 15.8622 7.87507 13.9106 7.87507 12.9997C7.87507 12.0887 7.80164 10.1356 8.12664 9.31375C8.2407 9.02937 8.3782 8.81687 8.59851 8.59812C8.81882 8.37937 9.02976 8.24031 9.31414 8.12625C10.136 7.80125 12.0891 7.87468 13.0001 7.87468C13.911 7.87468 15.8641 7.80125 16.686 8.12625C16.9704 8.24031 17.1829 8.37781 17.4016 8.59812C17.622 8.81843 17.7595 9.02937 17.8735 9.31375C18.1985 10.1356 18.1251 12.0887 18.1251 12.9997C18.1251 13.9106 18.1985 15.8622 17.872 16.6841Z" fill="#273D7A"/>
</svg>
