<svg width="57" height="51" viewBox="0 0 57 51" fill="none" xmlns="http://www.w3.org/2000/svg">
<g clip-path="url(#clip0_2_8529)">
<path d="M56.7668 18.1483C56.6309 18.0315 56.4543 17.9735 56.2759 17.987C56.0975 18.0005 55.9317 18.0844 55.8147 18.2204C51.3044 23.5014 43.601 26.1127 41.1444 24.2061C39.3211 22.7938 40.4199 18.8784 44.1534 13.4622C48.9287 6.54197 46.4213 3.09539 45.1219 1.94302C41.1145 -1.62976 30.8438 -0.442842 22.3455 6.90105C22.0875 6.81099 21.8164 6.76428 21.5432 6.76282H21.5177C15.5403 6.83043 11.7276 8.79561 9.29798 11.18C9.25902 11.2113 9.22386 11.2471 9.1932 11.2866C8.55132 11.9292 7.97419 12.6337 7.47019 13.39C2.60954 15.3267 0.495809 20.6859 0.236834 23.0206C0.208028 23.2671 0.254433 23.5165 0.369901 23.736C0.48537 23.9554 0.664474 24.1345 0.883534 24.2496C1.10231 24.365 1.35084 24.411 1.59624 24.3815C1.84163 24.352 2.07232 24.2484 2.25774 24.0844C2.97069 23.4418 3.77868 22.9142 4.65289 22.5203C4.41038 27.4333 5.80554 32.1359 7.56598 34.6299C11.6078 40.3392 17.2035 41.6914 22.1435 41.6914C23.662 41.6812 25.1782 41.5708 26.6823 41.3608C27.4227 41.5635 28.1871 41.6646 28.9547 41.6613C30.5518 41.6795 32.1257 41.2764 33.5189 40.4924C34.2101 40.1059 34.8108 39.5752 35.2805 38.9361C35.7502 38.297 36.078 37.5644 36.2419 36.7874C36.2903 36.5483 36.2713 36.3004 36.1869 36.0716C36.1026 35.8428 35.9562 35.6422 35.7644 35.4923C35.573 35.3415 35.3434 35.2475 35.1016 35.221C34.8598 35.1944 34.6154 35.2364 34.3961 35.3421C33.7658 35.6352 33.1155 35.8827 32.4501 36.0828C32.4613 35.516 32.3517 34.9533 32.1287 34.4325C31.9056 33.9117 31.5742 33.4447 31.1567 33.0629C30.528 32.4935 29.8603 32.2756 29.3768 32.4799C29.215 32.5473 29.0763 32.6608 28.9779 32.8063C28.8795 32.9518 28.8256 33.1229 28.8229 33.2988C28.7577 35.21 28.0899 37.0512 26.9158 38.5573C26.6826 38.8758 26.4725 39.2107 26.2871 39.5594C21.4518 36.1504 20.4294 31.562 20.7947 26.6851C21.5851 26.7226 22.6884 26.9495 22.9713 27.2079C23.1291 27.352 23.3273 27.4437 23.5389 27.4705C23.7506 27.4974 23.9653 27.4582 24.1539 27.3582C24.3432 27.259 24.4974 27.1036 24.5954 26.9133C24.6935 26.7229 24.7306 26.5068 24.7017 26.2944C24.5486 25.31 24.1934 24.3682 23.6587 23.5287C23.124 22.6893 22.4215 21.9704 21.5955 21.4175C21.6884 20.9773 21.7842 20.5386 21.8845 20.0984L21.9024 20.0083C21.9354 19.858 21.9698 19.7078 22.0072 19.547C22.2961 18.288 22.5851 17.1431 22.8635 16.0193C23.6719 12.7831 24.2587 10.4453 24.0012 8.8497C23.93 8.42485 23.7523 8.02517 23.4847 7.68832C31.1911 1.1903 40.6894 -0.212965 44.2282 2.94364C46.4392 4.91333 46.0246 8.37343 43.0471 12.6824C37.5861 20.5987 38.5562 23.8966 40.3211 25.2653C41.2403 25.9008 42.3425 26.2145 43.4573 26.1577C47.4646 26.1577 53.2415 23.3031 56.8461 19.0963C56.9623 18.9603 57.02 18.7837 57.0065 18.6051C56.993 18.4265 56.9095 18.2606 56.7743 18.1437L56.7668 18.1483ZM1.61404 22.8479C1.9284 21.0299 3.36999 17.5518 6.26512 15.5535C5.49143 17.2918 4.98954 19.1395 4.77715 21.0314C3.61691 21.4287 2.54319 22.0453 1.61404 22.8479ZM28.0131 39.3401C29.2105 37.7843 29.9426 35.9188 30.1238 33.9613C30.346 34.1366 30.5368 34.3484 30.6882 34.5879C30.9003 34.9183 31.036 35.2923 31.0852 35.6823C31.1344 36.0723 31.0959 36.4684 30.9726 36.8415C30.9378 36.9574 30.9347 37.0805 30.9636 37.1981C30.9925 37.3156 31.0522 37.4231 31.1367 37.5095C31.2211 37.596 31.3271 37.6581 31.4435 37.6893C31.56 37.7206 31.6828 37.7199 31.7989 37.6874C32.8603 37.4089 33.898 37.0462 34.9021 36.6026C34.7679 37.1765 34.5145 37.7155 34.1586 38.1844C33.8026 38.6532 33.352 39.0414 32.8363 39.3235C31.1982 40.2022 29.3125 40.5002 27.4846 40.1694C27.6429 39.8819 27.8194 39.6049 28.0131 39.3401ZM24.8694 40.207C19.7094 40.6742 13.1122 40.1258 8.66177 33.8426C6.9687 31.4508 5.62591 26.5844 6.075 21.685C6.08227 21.6484 6.08579 21.6111 6.08549 21.5738C6.26952 19.4668 6.84264 17.4125 7.77557 15.516C8.20305 14.6725 8.72056 13.878 9.31895 13.1466C9.91354 15.0369 11.1027 16.6827 12.7081 17.8373C14.7334 19.3594 17.1884 20.1959 19.7184 20.2261C19.9729 20.2261 20.2258 20.2126 20.4758 20.1931C18.9309 27.1749 18.0283 34.9079 24.8694 40.207ZM23.2153 25.8227C22.479 25.545 21.7033 25.3867 20.9174 25.3539C21.0163 24.5381 21.1465 23.7148 21.2991 22.8884C22.2082 23.659 22.874 24.6786 23.2153 25.8227ZM21.5507 15.6993C21.3141 16.6458 21.0507 17.702 20.7917 18.8093C18.1954 19.075 15.5953 18.342 13.5164 16.7585C11.9023 15.6291 10.7948 13.9084 10.4327 11.9672C13.0823 9.48823 16.8382 8.1646 21.5252 8.11201H21.5372C21.8085 8.11327 22.0705 8.21125 22.2764 8.38849C22.4824 8.56573 22.6188 8.81068 22.6614 9.07957C22.874 10.3972 22.2872 12.738 21.5477 15.7008L21.5507 15.6993Z" fill="#273D7A"/>
<path d="M33.8013 48.3901C33.6958 48.4013 33.5897 48.3747 33.5019 48.3149C33.2893 48.0896 33.3282 47.2107 33.3522 46.5661C33.418 45.0982 33.5154 42.8776 31.2864 42.4389C29.8134 42.1505 28.5379 43.124 27.0619 44.2524C24.7371 46.0297 21.8465 48.2413 16.643 47.1551C15.7703 46.9823 15.4994 48.2894 16.3691 48.4802C22.1713 49.6927 25.4692 47.1731 27.8778 45.3251C29.1457 44.356 30.1487 43.5883 31.0214 43.7626C32.0034 43.9564 32.0693 44.7872 31.9989 46.5045C31.9525 47.5863 31.9061 48.6079 32.5169 49.2464C32.6821 49.4126 32.8801 49.5423 33.0982 49.6272C33.3163 49.7121 33.5497 49.7502 33.7833 49.7393C34.6815 49.7393 34.6815 48.3871 33.7833 48.3871L33.8013 48.3901Z" fill="#273D7A"/>
<path d="M51.2529 48.8696C51.0912 48.7524 50.9221 48.0132 50.8203 47.5685C50.5748 46.4943 50.2694 45.1646 49.1976 44.5171C48.8154 44.317 48.3963 44.1984 47.9663 44.1687C47.5364 44.1389 47.105 44.1987 46.6991 44.3443C45.94 44.6368 45.2348 45.0542 44.6123 45.5793C42.816 46.8834 40.108 48.8546 35.5916 48.8546C34.6934 48.8546 34.6934 50.2068 35.5916 50.2068C40.5451 50.2068 43.4686 48.0808 45.4027 46.6745C45.9038 46.2557 46.4612 45.9097 47.0584 45.6469C47.29 45.5559 47.5374 45.5118 47.7861 45.5173C48.0348 45.5227 48.2799 45.5774 48.5074 45.6784C49.0838 46.0225 49.3083 47.0051 49.5074 47.8705C49.735 48.8681 50.0433 50.2143 51.2185 50.2143C51.2865 50.2143 51.3545 50.2098 51.422 50.2007C51.5098 50.1905 51.5946 50.1629 51.6716 50.1195C51.7487 50.0761 51.8163 50.0177 51.8706 49.9478C51.925 49.8779 51.9649 49.7979 51.9881 49.7123C52.0114 49.6268 52.0174 49.5374 52.0059 49.4495C51.9838 49.2724 51.8926 49.1114 51.7522 49.0018C51.6118 48.8922 51.4339 48.843 51.2574 48.8651L51.2529 48.8696Z" fill="#273D7A"/>
<path d="M13.995 46.6551C12.7151 46.4372 11.7495 45.8437 10.3334 43.3497C9.65673 42.1568 8.71664 41.5378 7.75259 41.6399C7.33127 41.7031 6.93843 41.8914 6.62468 42.1806C6.31092 42.4697 6.09062 42.8466 5.99216 43.2626C5.72121 44.1505 5.6748 44.9032 6.17928 46.5529C6.22303 46.7897 6.21517 47.0331 6.15626 47.2665C6.09734 47.4999 5.98879 47.7178 5.838 47.9051C5.68804 48.1486 5.49011 48.3588 5.25639 48.5228C5.02267 48.6869 4.75807 48.8013 4.47875 48.8591C3.58057 48.8892 3.62548 50.2414 4.52366 50.2113H4.57004C5.05416 50.1451 5.518 49.9734 5.92893 49.7081C6.33986 49.4428 6.68794 49.0905 6.94874 48.6758C7.21881 48.3225 7.40591 47.9126 7.49611 47.4766C7.58631 47.0406 7.57728 46.5898 7.46968 46.1578C7.02059 44.7094 7.10442 44.2497 7.28256 43.6637C7.40382 43.2716 7.63433 43.0192 7.90379 42.9876C8.20318 42.9546 8.7032 43.207 9.16576 44.0213C10.6448 46.6265 11.8513 47.6662 13.7734 47.9937C14.6551 48.144 14.8782 46.8143 13.9979 46.6596L13.995 46.6551Z" fill="#273D7A"/>
<path d="M4.61494 44.4195C4.7878 44.3746 4.93583 44.2626 5.0265 44.1082C5.11716 43.9539 5.14304 43.7697 5.09846 43.5961C4.93832 43.0503 4.62559 42.5621 4.19735 42.1893C3.76912 41.8165 3.24335 41.5747 2.68237 41.4927C2.25227 41.3843 1.80014 41.4026 1.38013 41.5454C0.960114 41.6882 0.590012 41.9495 0.314158 42.298C-0.0346353 42.8104 -0.268143 43.7193 0.595607 45.1527C1.06266 45.9234 2.21532 45.2203 1.74826 44.451C1.37552 43.8335 1.25424 43.3137 1.42639 43.0628C1.56216 42.9379 1.72782 42.8504 1.90724 42.8088C2.08666 42.7672 2.27376 42.7729 2.45033 42.8254C2.75592 42.8654 3.04419 42.9906 3.28236 43.1869C3.52054 43.3832 3.69905 43.6426 3.7976 43.9357C3.81942 44.0218 3.85799 44.1028 3.91108 44.1739C3.96417 44.2451 4.03074 44.305 4.10697 44.3502C4.1832 44.3954 4.26758 44.4251 4.35527 44.4375C4.44297 44.4499 4.53222 44.4448 4.61794 44.4225L4.61494 44.4195Z" fill="#273D7A"/>
<path d="M50.3103 37.4898C49.3372 37.3966 47.969 37.921 47.2924 39.6984C47.2559 39.7823 47.2368 39.8728 47.2363 39.9644C47.2358 40.056 47.2539 40.1467 47.2895 40.2311C47.3251 40.3154 47.3774 40.3916 47.4433 40.455C47.5091 40.5184 47.5872 40.5677 47.6726 40.5998C47.7568 40.6324 47.8467 40.6476 47.9369 40.6445C48.027 40.6413 48.1157 40.62 48.1974 40.5817C48.2792 40.5434 48.3524 40.489 48.4127 40.4216C48.473 40.3542 48.5191 40.2753 48.5483 40.1896C48.957 39.1229 49.6846 38.7999 50.1816 38.8465C50.3866 38.866 50.6202 38.9607 50.6561 39.168C50.6729 39.5544 50.538 39.932 50.2803 40.2197C49.6741 40.8853 50.668 41.7987 51.2743 41.1332C51.5423 40.8369 51.7441 40.4866 51.8663 40.1057C51.9884 39.7248 52.028 39.3221 51.9824 38.9246C51.9037 38.5324 51.6961 38.1779 51.393 37.9181C51.0898 37.6582 50.7086 37.5079 50.3103 37.4913V37.4898Z" fill="#273D7A"/>
<path d="M40.3252 39.9978C40.5116 40.0418 40.7025 40.0635 40.894 40.0624C41.32 40.0528 41.7397 39.9574 42.1283 39.7819C42.5169 39.6064 42.8663 39.3544 43.1559 39.0407C43.5032 38.6597 43.6993 38.1641 43.707 37.6477C43.7147 37.1313 43.5336 36.63 43.1978 36.2387C42.8338 35.7714 42.3097 35.4566 41.7273 35.3555C41.145 35.2544 40.546 35.3743 40.0467 35.6918C38.9135 36.3379 38.415 37.4151 38.7444 38.5044C38.8501 38.8727 39.0527 39.2058 39.3308 39.4685C39.609 39.7313 39.9524 39.9141 40.3252 39.9978ZM40.7114 36.8682C40.9287 36.7095 41.1992 36.642 41.4653 36.6802C41.7314 36.7183 41.9722 36.8591 42.1365 37.0725C42.2673 37.2111 42.3435 37.3926 42.3509 37.5833C42.3583 37.7739 42.2965 37.9609 42.1769 38.1092C41.9884 38.3272 41.7481 38.4938 41.4783 38.5936C41.2085 38.6934 40.9179 38.7232 40.6336 38.6801C40.4905 38.6503 40.3585 38.5809 40.2527 38.4797C40.1469 38.3786 40.0714 38.2497 40.0348 38.1077C39.8521 37.5067 40.3027 37.1011 40.7129 36.8667L40.7114 36.8682Z" fill="#273D7A"/>
<path d="M29.8151 8.45903C29.433 8.67889 29.1154 8.99613 28.8946 9.37867C28.6738 9.7612 28.5576 10.1955 28.5576 10.6376C28.5157 11.9251 29.7942 12.8912 30.9693 12.9633C31.0097 12.9633 31.0531 12.9633 31.0935 12.9633C31.9917 12.9633 33.0126 12.433 33.1309 10.908C33.1309 10.8569 33.1414 10.8043 33.1489 10.7472C33.2499 10.2951 33.1976 9.82195 33.0001 9.40304C32.8027 8.98413 32.4715 8.64341 32.0591 8.43499C31.7143 8.2454 31.3267 8.14778 30.9336 8.15147C30.5405 8.15515 30.1548 8.26001 29.8136 8.45603L29.8151 8.45903ZM31.812 10.591C31.8031 10.6661 31.7941 10.7412 31.7881 10.8043C31.7297 11.5555 31.339 11.6292 31.0396 11.6126C30.5127 11.5841 29.884 11.1484 29.899 10.6826C29.8901 10.4723 29.9381 10.2634 30.038 10.0782C30.1379 9.89303 30.2859 9.73848 30.4663 9.63094C30.6201 9.54453 30.793 9.49804 30.9693 9.49572C31.1147 9.49414 31.2581 9.53037 31.3854 9.60088C31.8869 9.89235 31.8585 10.1373 31.8061 10.5835L31.812 10.591Z" fill="#273D7A"/>
<path d="M10.2002 6.70384C11.2691 6.77746 13.0445 6.51755 13.3753 5.08273C13.4683 4.68013 13.4492 4.25961 13.3201 3.86718C13.191 3.47474 12.9569 3.12549 12.6433 2.85762C12.2233 2.49216 11.7163 2.24198 11.1714 2.1314C10.6266 2.02083 10.0626 2.05363 9.5341 2.22661C8.30959 2.63978 7.87095 4.06708 8.16735 5.15184C8.29179 5.5973 8.55762 5.98987 8.9245 6.26997C9.29138 6.55006 9.73929 6.70238 10.2002 6.70384ZM9.96371 3.51118C10.1444 3.44543 10.336 3.41484 10.5281 3.42103C10.9724 3.4152 11.4035 3.57227 11.7406 3.86276C11.8734 3.97078 11.9737 4.11358 12.0306 4.27536C12.0874 4.43713 12.0984 4.61154 12.0625 4.77924C11.9786 5.14583 11.1643 5.29757 10.7017 5.29757C10.5012 5.29757 9.70327 5.2525 9.46675 4.79877C9.40701 4.68372 9.37237 4.55722 9.36515 4.42769C9.35792 4.29816 9.37826 4.16858 9.42483 4.04755C9.47146 3.92551 9.5437 3.81496 9.63669 3.72345C9.72968 3.63193 9.84122 3.56159 9.96371 3.51719V3.51118Z" fill="#273D7A"/>
<path d="M18.4933 9.7282C18.2995 9.72761 18.1099 9.78428 17.9481 9.89116C17.7862 9.99803 17.6593 10.1504 17.5832 10.3292C17.509 10.5097 17.4898 10.7082 17.5279 10.8996C17.566 11.091 17.6597 11.2669 17.7972 11.4049C17.9347 11.5431 18.1099 11.6373 18.3006 11.6756C18.4914 11.7138 18.6892 11.6944 18.869 11.6198C19.0489 11.5452 19.2026 11.4187 19.3108 11.2563C19.419 11.094 19.4768 10.9031 19.4768 10.7078C19.477 10.5781 19.4517 10.4497 19.4024 10.3298C19.353 10.2099 19.2807 10.1009 19.1894 10.0092C19.0044 9.82454 18.7542 9.72085 18.4933 9.7207V9.7282Z" fill="#273D7A"/>
</g>
<defs>
<clipPath id="clip0_2_8529">
<rect width="57" height="50.2143" fill="white"/>
</clipPath>
</defs>
</svg>
