<svg width="47" height="49" viewBox="0 0 47 49" fill="none" xmlns="http://www.w3.org/2000/svg">
<g clip-path="url(#clip0_2_8546)">
<path d="M27.4167 42.0025H25.85V34.2359C25.85 34.0258 25.7675 33.8242 25.6206 33.6756C25.4737 33.5269 25.2744 33.4434 25.0667 33.4434C24.8589 33.4434 24.6597 33.5269 24.5128 33.6756C24.3659 33.8242 24.2833 34.0258 24.2833 34.2359V42.0025H3.91667V26.1524H10.434C10.6418 26.1524 10.841 26.0689 10.9879 25.9203C11.1348 25.7716 11.2173 25.5701 11.2173 25.3599C11.2173 25.1497 11.1348 24.9481 10.9879 24.7995C10.841 24.6509 10.6418 24.5674 10.434 24.5674H3.13333C2.92558 24.5674 2.72633 24.6509 2.57943 24.7995C2.43252 24.9481 2.35 25.1497 2.35 25.3599V42.0025H0.783333C0.57558 42.0025 0.376332 42.086 0.229428 42.2346C0.0825249 42.3833 0 42.5848 0 42.795V44.38C0 45.431 0.412641 46.4388 1.14716 47.182C1.88168 47.9251 2.8779 48.3426 3.91667 48.3426H24.2833C25.3221 48.3426 26.3183 47.9251 27.0528 47.182C27.7874 46.4388 28.2 45.431 28.2 44.38V42.795C28.2 42.5848 28.1175 42.3833 27.9706 42.2346C27.8237 42.086 27.6244 42.0025 27.4167 42.0025ZM26.6333 44.38C26.6333 45.0106 26.3857 45.6153 25.945 46.0612C25.5043 46.5071 24.9066 46.7575 24.2833 46.7575H22.7167V45.965C22.7167 45.7549 22.6341 45.5533 22.4872 45.4046C22.3403 45.256 22.1411 45.1725 21.9333 45.1725C21.7256 45.1725 21.5263 45.256 21.3794 45.4046C21.2325 45.5533 21.15 45.7549 21.15 45.965V46.7575H7.05V45.965C7.05 45.7549 6.96747 45.5533 6.82057 45.4046C6.67367 45.256 6.47442 45.1725 6.26667 45.1725C6.05891 45.1725 5.85967 45.256 5.71276 45.4046C5.56586 45.5533 5.48333 45.7549 5.48333 45.965V46.7575H3.91667C3.29341 46.7575 2.69568 46.5071 2.25497 46.0612C1.81426 45.6153 1.56667 45.0106 1.56667 44.38V43.5875H26.6333V44.38Z" fill="#273D7A"/>
<path d="M40.7331 5.5479H42.2997C42.5075 5.5479 42.7067 5.46439 42.8536 5.31577C43.0005 5.16715 43.0831 4.96558 43.0831 4.7554C43.0831 4.54521 43.0005 4.34363 42.8536 4.19501C42.7067 4.04638 42.5075 3.96289 42.2997 3.96289H40.7331C40.1098 3.96289 39.5121 4.21338 39.0714 4.65925C38.6307 5.10512 38.3831 5.70985 38.3831 6.34041V7.13291H37.5997C37.392 7.13291 37.1927 7.21641 37.0458 7.36503C36.8989 7.51365 36.8164 7.71523 36.8164 7.92542C36.8164 8.13561 36.8989 8.33717 37.0458 8.48579C37.1927 8.63442 37.392 8.71793 37.5997 8.71793H38.3831V11.0954C38.3831 11.3056 38.4656 11.5072 38.6125 11.6558C38.7594 11.8044 38.9587 11.8879 39.1664 11.8879C39.3742 11.8879 39.5734 11.8044 39.7203 11.6558C39.8672 11.5072 39.9497 11.3056 39.9497 11.0954V8.71793H40.7331C40.9408 8.71793 41.1401 8.63442 41.287 8.48579C41.4339 8.33717 41.5164 8.13561 41.5164 7.92542C41.5164 7.71523 41.4339 7.51365 41.287 7.36503C41.1401 7.21641 40.9408 7.13291 40.7331 7.13291H39.9497V6.34041C39.9497 6.13022 40.0323 5.92864 40.1792 5.78002C40.3261 5.63139 40.5253 5.5479 40.7331 5.5479Z" fill="#273D7A"/>
<path d="M44.6504 0.792969H35.2504C34.6271 0.792969 34.0294 1.04346 33.5887 1.48933C33.148 1.9352 32.9004 2.53993 32.9004 3.17049V4.7555C32.9004 4.96568 32.9829 5.16725 33.1298 5.31587C33.2767 5.4645 33.476 5.548 33.6837 5.548C33.8915 5.548 34.0907 5.4645 34.2376 5.31587C34.3845 5.16725 34.4671 4.96568 34.4671 4.7555V3.17049C34.4671 2.9603 34.5496 2.75872 34.6965 2.6101C34.8434 2.46147 35.0426 2.37798 35.2504 2.37798H44.6504C44.8581 2.37798 45.0574 2.46147 45.2043 2.6101C45.3512 2.75872 45.4337 2.9603 45.4337 3.17049V12.6806C45.4337 12.8907 45.3512 13.0923 45.2043 13.2409C45.0574 13.3896 44.8581 13.4731 44.6504 13.4731H35.2504C35.0426 13.4731 34.8434 13.3896 34.6965 13.2409C34.5496 13.0923 34.4671 12.8907 34.4671 12.6806V7.92552C34.4671 7.71534 34.3845 7.51375 34.2376 7.36513C34.0907 7.21651 33.8915 7.13302 33.6837 7.13302C33.476 7.13302 33.2767 7.21651 33.1298 7.36513C32.9829 7.51375 32.9004 7.71534 32.9004 7.92552V12.6806C32.9004 13.3111 33.148 13.9158 33.5887 14.3617C34.0294 14.8076 34.6271 15.0581 35.2504 15.0581H44.6504C45.2736 15.0581 45.8714 14.8076 46.3121 14.3617C46.7528 13.9158 47.0004 13.3111 47.0004 12.6806V3.17049C47.0004 2.53993 46.7528 1.9352 46.3121 1.48933C45.8714 1.04346 45.2736 0.792969 44.6504 0.792969Z" fill="#273D7A"/>
<path d="M36.8164 32.4923C36.8164 33.1191 37.0001 33.7318 37.3443 34.2531C37.6884 34.7743 38.1776 35.1806 38.7499 35.4206C39.3225 35.6607 39.9526 35.7236 40.5606 35.6014C41.1685 35.4791 41.727 35.1772 42.1653 34.7338C42.6033 34.2904 42.9016 33.7257 43.0224 33.1109C43.1432 32.4961 43.0812 31.8589 42.8442 31.2797C42.6071 30.7005 42.2056 30.2053 41.6904 29.8569C41.1752 29.5084 40.5695 29.3224 39.9497 29.3223C39.1187 29.3223 38.3217 29.6562 37.7341 30.2507C37.1465 30.8452 36.8164 31.6515 36.8164 32.4923ZM41.5164 32.4923C41.5165 32.8059 41.4246 33.1125 41.2524 33.3732C41.0802 33.6339 40.8354 33.8371 40.549 33.9571C40.2627 34.0772 39.9476 34.1086 39.6437 34.0475C39.3397 33.9864 39.0605 33.8354 38.8413 33.6137C38.6222 33.392 38.473 33.1095 38.4125 32.8019C38.3521 32.4944 38.3832 32.1757 38.5019 31.886C38.6204 31.5963 38.8213 31.3486 39.079 31.1744C39.3368 31.0002 39.6398 30.9072 39.9497 30.9073C40.3652 30.9073 40.7637 31.0743 41.0575 31.3715C41.3513 31.6688 41.5164 32.0719 41.5164 32.4923Z" fill="#273D7A"/>
<path d="M44.6504 25.3602H35.2504C34.6271 25.3602 34.0294 25.6107 33.5887 26.0566C33.148 26.5025 32.9004 27.1072 32.9004 27.7377V37.2478C32.9004 37.8784 33.148 38.4831 33.5887 38.929C34.0294 39.3748 34.6271 39.6253 35.2504 39.6253H44.6504C45.2736 39.6253 45.8714 39.3748 46.3121 38.929C46.7528 38.4831 47.0004 37.8784 47.0004 37.2478V35.6628C47.0004 35.4526 46.9179 35.251 46.771 35.1024C46.6241 34.9538 46.4248 34.8703 46.2171 34.8703C46.0093 34.8703 45.8101 34.9538 45.6632 35.1024C45.5162 35.251 45.4337 35.4526 45.4337 35.6628V37.2478C45.4337 37.458 45.3512 37.6596 45.2043 37.8082C45.0574 37.9568 44.8581 38.0403 44.6504 38.0403H35.2504C35.0426 38.0403 34.8434 37.9568 34.6965 37.8082C34.5496 37.6596 34.4671 37.458 34.4671 37.2478V27.7377C34.4671 27.5276 34.5496 27.326 34.6965 27.1774C34.8434 27.0287 35.0426 26.9452 35.2504 26.9452H44.6504C44.8581 26.9452 45.0574 27.0287 45.2043 27.1774C45.3512 27.326 45.4337 27.5276 45.4337 27.7377V32.4928C45.4337 32.703 45.5162 32.9045 45.6632 33.0532C45.8101 33.2018 46.0093 33.2853 46.2171 33.2853C46.4248 33.2853 46.6241 33.2018 46.771 33.0532C46.9179 32.9045 47.0004 32.703 47.0004 32.4928V27.7377C47.0004 27.1072 46.7528 26.5025 46.3121 26.0566C45.8714 25.6107 45.2736 25.3602 44.6504 25.3602Z" fill="#273D7A"/>
<path d="M17.6074 10.1832C17.7319 10.2619 17.8759 10.3031 18.0226 10.3021C18.1453 10.3018 18.2661 10.2719 18.3751 10.2149L23.0751 7.83741C23.2033 7.77083 23.3109 7.66976 23.386 7.54532C23.461 7.42087 23.5008 7.27788 23.5007 7.13208C23.5008 6.98628 23.461 6.8433 23.386 6.71885C23.3109 6.59441 23.2033 6.49332 23.0751 6.42674L18.3751 4.04923C18.2558 3.98851 18.1231 3.95967 17.9896 3.96545C17.8562 3.97123 17.7264 4.01143 17.6126 4.08225C17.499 4.15287 17.405 4.2517 17.3397 4.36936C17.2743 4.48701 17.2398 4.61961 17.2393 4.75457V9.5096C17.239 9.64428 17.2726 9.7768 17.3371 9.89466C17.4015 10.0125 17.4945 10.1118 17.6074 10.1832ZM18.8059 6.03842L20.9679 7.13208L18.8059 8.22573V6.03842Z" fill="#273D7A"/>
<path d="M19.5829 14.2647C20.9761 14.2646 22.3382 13.847 23.4969 13.0644C24.6557 12.2818 25.5594 11.1694 26.0937 9.86758C26.6273 8.5642 26.7668 7.13001 26.4947 5.74639C26.2225 4.36277 25.551 3.09187 24.5649 2.09442C23.579 1.09678 22.3228 0.417343 20.9552 0.14203C19.5876 -0.133283 18.17 0.00788482 16.8817 0.547699C15.5936 1.08765 14.4927 2.00191 13.7181 3.17486C12.9436 4.3478 12.5302 5.72677 12.5303 7.13739C12.5303 9.02906 13.273 10.8433 14.5952 12.1809C15.9173 13.5185 17.7105 14.2699 19.5803 14.2699L19.5829 14.2647ZM19.5829 1.58457C20.6674 1.58468 21.7275 1.91012 22.6291 2.51976C23.5308 3.12939 24.2335 3.99582 24.6484 5.00951C25.0635 6.02312 25.1722 7.13847 24.9607 8.21455C24.7492 9.29064 24.2271 10.2791 23.4604 11.055C22.6935 11.8312 21.7163 12.3598 20.6524 12.574C19.5885 12.7882 18.4857 12.6783 17.4836 12.2583C16.4816 11.8382 15.6254 11.127 15.023 10.2145C14.4207 9.30205 14.0993 8.22936 14.0996 7.13211C14.0996 5.66081 14.6773 4.24978 15.7056 3.20941C16.7339 2.16904 18.1286 1.58457 19.5829 1.58457Z" fill="#273D7A"/>
<path d="M27.4171 17.4347C27.5387 17.4347 27.6587 17.4061 27.7674 17.3511C27.8762 17.296 27.9708 17.2161 28.0438 17.1177L30.3938 13.9477C30.4555 13.8644 30.5004 13.7697 30.5259 13.6689C30.5515 13.5681 30.5571 13.4631 30.5426 13.3601C30.528 13.2571 30.4936 13.158 30.4412 13.0684C30.3888 12.9789 30.3194 12.9006 30.2371 12.8382C30.1548 12.7757 30.0612 12.7303 29.9615 12.7045C29.8619 12.6786 29.7582 12.6729 29.6563 12.6877C29.5545 12.7024 29.4565 12.7372 29.368 12.7903C29.2795 12.8433 29.2022 12.9134 29.1405 12.9967L26.7905 16.1667C26.7287 16.25 26.6838 16.3447 26.6583 16.4455C26.6328 16.5463 26.6271 16.6513 26.6417 16.7543C26.6562 16.8573 26.6907 16.9564 26.7431 17.046C26.7955 17.1355 26.8648 17.2138 26.9471 17.2762C27.0827 17.3791 27.2476 17.4347 27.4171 17.4347Z" fill="#273D7A"/>
<path d="M29.1401 20.2881C29.213 20.3865 29.3076 20.4664 29.4164 20.5214C29.5252 20.5765 29.6451 20.6051 29.7667 20.6051C29.9362 20.6051 30.1011 20.5495 30.2367 20.4466L33.3701 18.0691C33.4524 18.0066 33.5217 17.9284 33.5741 17.8389C33.6265 17.7493 33.661 17.6502 33.6755 17.5472C33.6901 17.4441 33.6844 17.3392 33.6589 17.2384C33.6334 17.1376 33.5885 17.0428 33.5267 16.9596C33.4021 16.7914 33.2165 16.6803 33.0108 16.6505C32.8052 16.6208 32.5963 16.675 32.4301 16.8011L29.2967 19.1786C29.1305 19.3047 29.0207 19.4925 28.9913 19.7005C28.9619 19.9086 29.0154 20.12 29.1401 20.2881Z" fill="#273D7A"/>
<path d="M36.8169 22.0314C36.7982 21.9264 36.7587 21.8263 36.7009 21.7371C36.643 21.6479 36.5679 21.5714 36.4801 21.5123C36.3924 21.4531 36.2937 21.4123 36.1901 21.3926C36.0865 21.3728 35.9799 21.3745 35.8769 21.3974L31.9603 22.1899C31.8572 22.1998 31.7571 22.2303 31.6657 22.2795C31.5744 22.3288 31.4936 22.396 31.428 22.477C31.3625 22.5581 31.3135 22.6515 31.2838 22.7518C31.2541 22.8522 31.2444 22.9575 31.2553 23.0617C31.2651 23.1659 31.2952 23.2672 31.3439 23.3596C31.3926 23.452 31.4589 23.5338 31.5391 23.6001C31.6192 23.6664 31.7115 23.716 31.8107 23.746C31.9099 23.776 32.014 23.7859 32.1169 23.7749H32.2736L36.1903 22.9824C36.2941 22.9635 36.393 22.9235 36.4812 22.865C36.5693 22.8064 36.6449 22.7304 36.7033 22.6416C36.7619 22.5529 36.8022 22.4531 36.8217 22.3482C36.8412 22.2434 36.8396 22.1356 36.8169 22.0314Z" fill="#273D7A"/>
<path d="M0.783333 22.1899H10.1833C10.3911 22.1899 10.5903 22.1064 10.7372 21.9578C10.8841 21.8092 10.9667 21.6076 10.9667 21.3974V8.71731C10.9667 8.50712 10.8841 8.30554 10.7372 8.15692C10.5903 8.0083 10.3911 7.9248 10.1833 7.9248H0.783333C0.57558 7.9248 0.376332 8.0083 0.229428 8.15692C0.0825249 8.30554 0 8.50712 0 8.71731V21.3974C0 21.6076 0.0825249 21.8092 0.229428 21.9578C0.376332 22.1064 0.57558 22.1899 0.783333 22.1899ZM1.56667 9.50982H9.4V20.6049H1.56667V9.50982Z" fill="#273D7A"/>
<path d="M7.0502 11.0947H5.48353C5.27578 11.0947 5.07653 11.1782 4.92962 11.3268C4.78272 11.4755 4.7002 11.677 4.7002 11.8872C4.7002 12.0974 4.78272 12.299 4.92962 12.4476C5.07653 12.5962 5.27578 12.6797 5.48353 12.6797H7.0502C7.25795 12.6797 7.4572 12.5962 7.6041 12.4476C7.751 12.299 7.83353 12.0974 7.83353 11.8872C7.83353 11.677 7.751 11.4755 7.6041 11.3268C7.4572 11.1782 7.25795 11.0947 7.0502 11.0947Z" fill="#273D7A"/>
<path d="M7.05046 14.2646H3.91712C3.70937 14.2646 3.51012 14.3481 3.36322 14.4968C3.21631 14.6454 3.13379 14.847 3.13379 15.0572C3.13379 15.2673 3.21631 15.4689 3.36322 15.6175C3.51012 15.7662 3.70937 15.8497 3.91712 15.8497H7.05046C7.25821 15.8497 7.45746 15.7662 7.60436 15.6175C7.75126 15.4689 7.83379 15.2673 7.83379 15.0572C7.83379 14.847 7.75126 14.6454 7.60436 14.4968C7.45746 14.3481 7.25821 14.2646 7.05046 14.2646Z" fill="#273D7A"/>
<path d="M7.05046 17.4355H3.91712C3.70937 17.4355 3.51012 17.519 3.36322 17.6677C3.21631 17.8163 3.13379 18.0179 3.13379 18.2281C3.13379 18.4382 3.21631 18.6398 3.36322 18.7884C3.51012 18.9371 3.70937 19.0206 3.91712 19.0206H7.05046C7.25821 19.0206 7.45746 18.9371 7.60436 18.7884C7.75126 18.6398 7.83379 18.4382 7.83379 18.2281C7.83379 18.0179 7.75126 17.8163 7.60436 17.6677C7.45746 17.519 7.25821 17.4355 7.05046 17.4355Z" fill="#273D7A"/>
<path d="M26.7278 21.952C26.6766 21.8611 26.6082 21.7815 26.5264 21.7175C26.4447 21.6536 26.3513 21.6066 26.2515 21.5794C26.1518 21.5521 26.0477 21.5451 25.9452 21.5587C25.8428 21.5723 25.744 21.6063 25.6546 21.6587C25.5649 21.7105 25.4861 21.7797 25.4229 21.8624C25.3597 21.9451 25.3133 22.0396 25.2864 22.1406C25.2594 22.2415 25.2525 22.3468 25.2659 22.4504C25.2794 22.5541 25.313 22.654 25.3648 22.7445L28.8193 28.7913L16.2859 33.5463H16.1684L14.1318 34.7351L12.7766 35.5276C12.5982 35.6319 12.4012 35.6996 12.1969 35.7268C11.9926 35.754 11.785 35.7402 11.5859 35.6861C11.1861 35.5768 10.8453 35.3118 10.6381 34.9491L9.07145 32.207C8.88713 31.8482 8.8453 31.4318 8.95452 31.0428C9.06373 30.6539 9.31573 30.3219 9.65895 30.1148L12.3693 28.5298L14.3276 31.9639C14.3966 32.0849 14.496 32.1852 14.6157 32.2548C14.7353 32.3244 14.8711 32.3608 15.0091 32.3602C15.1469 32.3605 15.2824 32.3241 15.4018 32.2545C15.5212 32.1849 15.6204 32.0847 15.6893 31.9639C15.7581 31.8435 15.7943 31.7068 15.7943 31.5677C15.7943 31.4286 15.7581 31.2919 15.6893 31.1714L13.6683 27.6369L23.4991 19.4344L23.8203 19.9971C23.8717 20.0877 23.9402 20.1671 24.022 20.2308C24.1037 20.2945 24.1972 20.3412 24.2968 20.3683C24.3965 20.3957 24.5005 20.4029 24.6028 20.3896C24.7052 20.3762 24.804 20.3425 24.8935 20.2903C24.983 20.2384 25.0615 20.169 25.1245 20.0863C25.1874 20.0036 25.2336 19.9091 25.2603 19.8082C25.2874 19.7074 25.2946 19.6022 25.2814 19.4986C25.2682 19.395 25.2348 19.2951 25.1833 19.2046L24.4 17.8336C24.3426 17.7343 24.2645 17.6488 24.1711 17.5831C24.0778 17.5174 23.9715 17.4731 23.8595 17.4532C23.7469 17.4317 23.631 17.4355 23.52 17.4642C23.4091 17.493 23.3057 17.546 23.2171 17.6196L12.2505 26.7651L8.91348 28.7147C8.31558 29.0683 7.85035 29.6125 7.59052 30.262C7.33069 30.9116 7.2909 31.6299 7.47737 32.3047L6.69403 32.7565C6.28905 32.9913 5.96238 33.3429 5.75567 33.7663C5.54896 34.1897 5.47158 34.6659 5.53339 35.134C5.59517 35.5997 5.79196 36.0364 6.09892 36.389C6.40587 36.7417 6.80921 36.9944 7.25803 37.1152C7.45737 37.1687 7.66281 37.1953 7.86903 37.1945C8.28112 37.1927 8.68579 37.0835 9.04403 36.8775L9.82737 36.4257C10.2034 36.8193 10.6767 37.1039 11.1982 37.25C11.4657 37.3264 11.7427 37.3637 12.0207 37.3609C12.5713 37.3622 13.1122 37.2144 13.5874 36.933L14.2689 36.5367L15.8355 39.2867C16.1469 39.8313 16.6589 40.2289 17.2594 40.3923C17.8599 40.5557 18.5 40.4716 19.0394 40.1584C19.3069 40.0025 19.5415 39.7947 19.7297 39.547C19.9179 39.2993 20.056 39.0165 20.136 38.7148C20.2161 38.413 20.2365 38.0981 20.1962 37.7883C20.1559 37.4785 20.0556 37.1797 19.901 36.9092L18.4754 34.3996L30.2254 29.9378C30.3319 29.8972 30.4285 29.8337 30.5083 29.7516C30.5881 29.6695 30.6493 29.5707 30.6875 29.4623C30.726 29.3547 30.7411 29.24 30.7316 29.126C30.7222 29.012 30.6884 28.9014 30.6327 28.8018L26.7278 21.952ZM8.22545 35.4919C8.13624 35.5441 8.03774 35.5779 7.93559 35.5915C7.83343 35.6051 7.72961 35.5982 7.63011 35.5712C7.42942 35.5184 7.25759 35.3873 7.15229 35.2066C7.10072 35.1164 7.06725 35.0167 7.05381 34.9134C7.04037 34.81 7.04722 34.705 7.07396 34.6043C7.1007 34.5031 7.14699 34.4083 7.21018 34.3253C7.27338 34.2423 7.35221 34.1728 7.44211 34.1209L8.12361 33.7246L8.90694 35.0957L8.22545 35.4919ZM18.5393 37.7109C18.5909 37.8012 18.6244 37.9008 18.6378 38.0042C18.6513 38.1075 18.6444 38.2126 18.6177 38.3132C18.5618 38.5147 18.4295 38.6856 18.2495 38.7887C18.0706 38.8927 17.8583 38.9211 17.6589 38.8677C17.4594 38.8143 17.2888 38.6834 17.1842 38.5034L15.6175 35.7534L16.9231 35.0006H16.9857L18.5393 37.7109Z" fill="#273D7A"/>
</g>
<defs>
<clipPath id="clip0_2_8546">
<rect width="47" height="48.3429" fill="white"/>
</clipPath>
</defs>
</svg>
