<svg width="46" height="48" viewBox="0 0 46 48" fill="none" xmlns="http://www.w3.org/2000/svg">
<g clip-path="url(#clip0_2_8516)">
<path d="M42.598 2.90137C41.6947 2.90269 40.8288 3.26274 40.1901 3.90259C39.5513 4.54244 39.1919 5.40989 39.1906 6.31478V33.3154C39.1888 34.754 38.6175 36.1331 37.6019 37.1502C36.5863 38.1673 35.2094 38.7392 33.7733 38.7405H25.2066C25.1759 38.7421 25.1454 38.7455 25.1151 38.7506C24.6363 38.2113 24.049 37.7799 23.3917 37.4845C22.7344 37.1892 22.0221 37.0367 21.3017 37.0372H17.8943C16.5395 37.0385 15.2404 37.5781 14.2822 38.5377C13.3241 39.4973 12.785 40.7984 12.7832 42.1556C12.7845 43.5132 13.3234 44.8147 14.2817 45.7746C15.2399 46.7346 16.5392 47.2744 17.8943 47.2757H21.3017C22.0209 47.2762 22.732 47.1242 23.3884 46.8298C24.0447 46.5354 24.6315 46.1051 25.1101 45.5674H32.998C36.4466 45.5634 39.7528 44.1893 42.1913 41.7465C44.6298 39.3037 46.0014 35.9917 46.0054 32.5371V6.31478C46.0041 5.40989 45.6447 4.54244 45.006 3.90259C44.3672 3.26274 43.5013 2.90269 42.598 2.90137ZM44.3017 12.2699L40.8943 14.0066V11.6282L44.3017 9.89321V12.2699ZM40.8943 15.92L44.3017 14.185V16.5617L40.8943 18.2984V15.92ZM42.598 4.60807C43.0496 4.60895 43.4824 4.78906 43.8017 5.10894C44.1211 5.42882 44.3008 5.8624 44.3017 6.31478V7.98148L40.8943 9.71653V6.31811C40.8947 5.8656 41.0744 5.43176 41.3938 5.11179C41.7132 4.79181 42.1463 4.61185 42.598 4.61141V4.60807ZM21.3017 45.569H17.8943C16.9909 45.5682 16.1247 45.2082 15.4859 44.5683C14.8471 43.9284 14.4878 43.0606 14.4869 42.1556C14.4882 41.2507 14.8476 40.3833 15.4864 39.7434C16.1251 39.1036 16.991 38.7435 17.8943 38.7422H21.3017C22.205 38.7435 23.0709 39.1036 23.7097 39.7434C24.3484 40.3833 24.7078 41.2507 24.7091 42.1556C24.7082 43.0606 24.349 43.9284 23.7101 44.5683C23.0713 45.2082 22.2051 45.5682 21.3017 45.569ZM32.998 43.8623H26.12C26.3136 43.3142 26.4127 42.7371 26.4128 42.1556C26.4125 41.5742 26.3135 40.9971 26.12 40.4489H33.7733C35.6611 40.4472 37.4711 39.6953 38.8061 38.3582C40.1411 37.0212 40.8921 35.2082 40.8943 33.3171V20.2201L44.3017 18.4851V32.5471C44.2991 35.5495 43.1073 38.4281 40.988 40.5511C38.8687 42.6741 35.9952 43.868 32.998 43.8707V43.8623Z" fill="#273D7A"/>
<path d="M18.1918 31.5954C18.4979 31.117 18.651 31.0637 18.7408 31.0637C18.8307 31.0637 18.9838 31.1237 19.2916 31.6021C20.8172 33.9804 23.3445 37.0422 27.9815 37.0422C28.2976 37.0422 28.6237 37.0277 28.9598 36.9989C31.1066 36.8048 33.121 35.8747 34.6628 34.3657C36.2047 32.8566 37.1797 30.8609 37.4234 28.7153C37.5706 27.3976 37.4393 26.0637 37.038 24.8002C36.6367 23.5367 35.9743 22.372 35.0941 21.3818C34.2138 20.3983 33.1366 19.6115 31.9326 19.0728C30.7286 18.5341 29.4249 18.2554 28.1062 18.2551C27.8803 18.2551 27.6636 18.345 27.5039 18.505C27.3441 18.665 27.2544 18.8821 27.2544 19.1084C27.2544 19.3347 27.3441 19.5518 27.5039 19.7118C27.6636 19.8719 27.8803 19.9618 28.1062 19.9618C29.1844 19.9629 30.2503 20.1912 31.2347 20.632C32.219 21.0727 33.0997 21.7161 33.8196 22.5202C34.545 23.3269 35.0902 24.2795 35.4188 25.3142C35.7473 26.3489 35.8516 27.442 35.7246 28.5203C35.3336 32.0671 32.3572 34.9771 28.805 35.2921C25.4059 35.5922 22.9818 34.2104 20.7207 30.672C20.4878 30.3103 19.8705 29.3487 18.7359 29.3487C17.6012 29.3487 16.9839 30.307 16.7543 30.667C14.5781 34.0605 12.5749 35.3221 9.36549 35.3221C8.31594 35.3268 7.27683 35.1134 6.31377 34.6954C5.35071 34.2775 4.48464 33.664 3.77022 32.8938C3.04867 32.1275 2.49354 31.2197 2.13988 30.2277C1.78621 29.2357 1.64171 28.181 1.71547 27.1303C1.97501 23.1102 5.46394 19.9634 9.65665 19.9634H20.8272C21.0532 19.9634 21.2698 19.8735 21.4296 19.7135C21.5893 19.5535 21.6791 19.3364 21.6791 19.1101C21.6791 18.8838 21.5893 18.6667 21.4296 18.5067C21.2698 18.3466 21.0532 18.2567 20.8272 18.2567H9.65499C4.5655 18.2567 0.337856 22.1068 0.00510169 27.0203C-0.0845866 28.3042 0.0923608 29.5929 0.524767 30.8049C0.957173 32.0169 1.63565 33.126 2.5174 34.0621C3.39519 34.9975 4.45454 35.7433 5.63043 36.2537C6.80632 36.7642 8.07395 37.0285 9.3555 37.0305C13.1439 37.0305 15.6995 35.4555 18.1735 31.5904L18.1918 31.5954Z" fill="#273D7A"/>
<path d="M3.41042 27.4676C3.38422 28.2661 3.5196 29.0617 3.80839 29.8064C4.09718 30.5511 4.5334 31.2296 5.09082 31.801C5.64485 32.3772 6.30968 32.8349 7.04515 33.1465C7.78062 33.4582 8.5715 33.6174 9.37006 33.6144C11.1353 33.6144 13.7591 32.3477 15.3596 29.5643C15.7059 28.9739 16.2013 28.4853 16.796 28.1477C17.3906 27.81 18.0636 27.6353 18.7471 27.6409C19.4306 27.6353 20.1035 27.81 20.6982 28.1477C21.2929 28.4853 21.7882 28.9739 22.1345 29.5643C23.7268 32.3477 26.3522 33.6144 28.1241 33.6144C28.9226 33.6172 29.7135 33.4579 30.4489 33.1463C31.1843 32.8346 31.8492 32.377 32.4033 31.801C32.9608 31.2296 33.397 30.5511 33.6858 29.8064C33.9746 29.0617 34.1099 28.2661 34.0837 27.4676C33.9889 24.2742 31.2221 21.6758 27.9161 21.6758H9.59134C6.28542 21.6758 3.51858 24.2742 3.42374 27.4676H3.41042ZM32.3601 27.5176C32.3793 28.0893 32.2827 28.659 32.0763 29.1924C31.8698 29.7257 31.5578 30.2117 31.1588 30.621C30.763 31.0323 30.2881 31.359 29.7629 31.5816C29.2376 31.8042 28.6728 31.9179 28.1025 31.916C26.5751 31.916 24.6402 30.5427 23.597 28.7226C23.1012 27.8721 22.3905 27.1674 21.5365 26.6794C20.6825 26.1914 19.7153 25.9372 18.7321 25.9425C17.7489 25.9372 16.7817 26.1914 15.9277 26.6794C15.0737 27.1674 14.363 27.8721 13.8672 28.7226C12.824 30.5427 10.8874 31.916 9.36174 31.916C8.7912 31.9178 8.2262 31.804 7.70068 31.5814C7.17517 31.3589 6.7 31.0322 6.30372 30.621C5.90502 30.2116 5.59318 29.7256 5.38702 29.1922C5.18086 28.6589 5.08464 28.0892 5.10415 27.5176C5.17236 25.2375 7.17554 23.3825 9.56971 23.3825H14.3131L9.58634 28.7943C9.51253 28.8786 9.45605 28.9767 9.42011 29.0829C9.38417 29.1892 9.36947 29.3015 9.37689 29.4134C9.38431 29.5253 9.41368 29.6347 9.46333 29.7352C9.51297 29.8357 9.5819 29.9255 9.6662 29.9993C9.82126 30.1355 10.0207 30.2102 10.2269 30.2093C10.3483 30.2095 10.4683 30.1836 10.5788 30.1333C10.6894 30.083 10.7878 30.0094 10.8675 29.9177L16.5759 23.3825H27.9078C30.302 23.3825 32.3052 25.2375 32.3734 27.5176H32.3601Z" fill="#273D7A"/>
<path d="M5.9628 14.8487C6.64031 14.8478 7.28979 14.5778 7.76886 14.0979C8.24793 13.6179 8.51747 12.9673 8.51835 12.2886C8.51747 11.6101 8.24788 10.9596 7.76876 10.4799C7.28964 10.0003 6.64015 9.73067 5.9628 9.73022C5.28545 9.73067 4.63593 10.0003 4.15682 10.4799C3.6777 10.9596 3.40811 11.6101 3.40723 12.2886C3.40811 12.9673 3.67765 13.6179 4.15672 14.0979C4.63579 14.5778 5.28529 14.8478 5.9628 14.8487ZM5.9628 11.4353C6.18859 11.4357 6.405 11.5257 6.56466 11.6857C6.72432 11.8456 6.81421 12.0624 6.81465 12.2886C6.81465 12.5149 6.7249 12.732 6.56515 12.892C6.40539 13.0521 6.18872 13.142 5.9628 13.142C5.73687 13.142 5.52019 13.0521 5.36043 12.892C5.20068 12.732 5.11093 12.5149 5.11093 12.2886C5.11093 12.0623 5.20068 11.8452 5.36043 11.6852C5.52019 11.5252 5.73687 11.4353 5.9628 11.4353Z" fill="#273D7A"/>
<path d="M9.37027 7.51183C10.3643 7.51095 11.3174 7.1151 12.0204 6.41112C12.7235 5.70714 13.1191 4.75253 13.1204 3.75674C13.1195 2.76066 12.7241 1.80564 12.021 1.1013C11.3179 0.396967 10.3646 0.000882661 9.37027 0C8.37594 0.000882661 7.42258 0.396967 6.71948 1.1013C6.01639 1.80564 5.621 2.76066 5.62012 3.75674C5.62144 4.75253 6.01702 5.70714 6.72007 6.41112C7.42312 7.1151 8.37623 7.51095 9.37027 7.51183ZM9.37027 1.70504C9.91304 1.70592 10.4333 1.92241 10.8169 2.30704C11.2006 2.69167 11.4163 3.21302 11.4167 3.75674C11.4158 4.30002 11.1999 4.82079 10.8162 5.20479C10.4326 5.5888 9.91259 5.80469 9.37027 5.80513C8.82794 5.80469 8.30792 5.5888 7.92428 5.20479C7.54064 4.82079 7.3247 4.30002 7.32382 3.75674C7.32426 3.21302 7.53995 2.69167 7.92359 2.30704C8.30722 1.92241 8.8275 1.70592 9.37027 1.70504Z" fill="#273D7A"/>
<path d="M2.55526 6.31514C2.55526 6.54147 2.46553 6.75854 2.30578 6.91857C2.14603 7.07861 1.92934 7.1685 1.70341 7.1685C1.47749 7.1685 1.26082 7.07861 1.10107 6.91857C0.941314 6.75854 0.851562 6.54147 0.851562 6.31514C0.851562 6.08882 0.941314 5.87177 1.10107 5.71174C1.26082 5.5517 1.47749 5.46179 1.70341 5.46179C1.92934 5.46179 2.14603 5.5517 2.30578 5.71174C2.46553 5.87177 2.55526 6.08882 2.55526 6.31514Z" fill="#273D7A"/>
<path d="M10.1188 24.6335C9.9468 24.4869 9.72377 24.4145 9.49861 24.4323C9.27345 24.4501 9.0645 24.5566 8.91757 24.7285L7.16563 26.7802C7.01898 26.9518 6.94625 27.1747 6.96341 27.4C6.98056 27.6252 7.08619 27.8345 7.25713 27.9819C7.4111 28.1151 7.60774 28.1884 7.81118 28.1886C7.93434 28.1887 8.05605 28.1619 8.16783 28.1101C8.27961 28.0583 8.37878 27.9827 8.45839 27.8885L10.212 25.8368C10.3585 25.6647 10.431 25.4414 10.4135 25.2159C10.3961 24.9903 10.2901 24.7809 10.1188 24.6335Z" fill="#273D7A"/>
</g>
<defs>
<clipPath id="clip0_2_8516">
<rect width="46" height="47.2778" fill="white"/>
</clipPath>
</defs>
</svg>
