<svg width="26" height="26" viewBox="0 0 26 26" fill="none" xmlns="http://www.w3.org/2000/svg">
<circle cx="13" cy="13" r="12.5" stroke="#273D7A"/>
<path d="M19.6663 8.93811C19.1666 9.15636 18.6373 9.29947 18.0957 9.36278C18.6642 9.02893 19.0917 8.49951 19.2983 7.87344C18.7597 8.18699 18.1722 8.40784 17.5603 8.52678C17.3027 8.25691 16.9928 8.04237 16.6495 7.89623C16.3062 7.75009 15.9368 7.67542 15.5637 7.67678C14.053 7.67678 12.8283 8.88344 12.8283 10.3701C12.8283 10.5808 12.8523 10.7868 12.899 10.9834C11.8154 10.9319 10.7544 10.655 9.78379 10.1705C8.81315 9.68602 7.95418 9.0045 7.26167 8.16944C7.01889 8.57904 6.89128 9.04663 6.89234 9.52278C6.89281 9.96809 7.00423 10.4063 7.21653 10.7977C7.42884 11.1891 7.73534 11.5215 8.10834 11.7648C7.67466 11.7508 7.25036 11.635 6.86967 11.4268V11.4601C6.86967 12.7654 7.81301 13.8541 9.06301 14.1021C8.82808 14.1644 8.58606 14.196 8.34301 14.1961C8.16634 14.1961 7.99501 14.1794 7.82767 14.1461C8.0064 14.6847 8.34841 15.1543 8.80622 15.4897C9.26403 15.825 9.8149 16.0095 10.3823 16.0174C9.40905 16.7671 8.21422 17.1721 6.98567 17.1688C6.76434 17.1688 6.54701 17.1554 6.33301 17.1314C7.58718 17.9252 9.0414 18.3456 10.5257 18.3434C15.557 18.3434 18.3077 14.2388 18.3077 10.6794L18.2983 10.3308C18.8349 9.95322 19.2984 9.48134 19.6663 8.93811Z" fill="#273D7A"/>
</svg>
